<?xml version="1.0" encoding="UTF-8" standalone="no"?>
<svg width="100%" height="100%" viewBox="0 0 1024 1024" version="1.1" xmlns="http://www.w3.org/2000/svg" xmlns:xlink="http://www.w3.org/1999/xlink" xml:space="preserve" xmlns:serif="http://www.serif.com/" style="fill-rule:evenodd;clip-rule:evenodd;stroke-linejoin:round;stroke-miterlimit:2;">
    <g transform="matrix(1.04346,0,0,1.7112,19.0701,0)">
        <rect x="-18.276" y="0" width="981.349" height="598.41"/>
    </g>
    <g>
        <path d="M456.7,832.1C453.1,845.1 444.9,851.1 432.3,854C442.3,840.8 440.5,827 438.1,813.1C435.6,799 434.6,784.7 436.1,770.5C438.4,748.9 450.8,733.6 468.4,721.9C481.4,713.2 495.9,708.3 511.1,706.3C520.8,705.1 531.4,705.1 541,706.7C554.3,708.9 562,714.8 570.6,722.9C587.8,739.2 600.1,758.6 606.6,781.4C608.6,788.5 609.4,795.8 608.5,803.3C604.5,798.5 603.5,791.3 595.3,789.6C595.2,817.3 588.7,842 562.1,858.3C564.8,848.3 565.8,839.4 560.2,830.9C560.1,832 559.8,833.1 559.8,834.1C561.3,855.1 551.7,871.1 537.4,885.1C515.7,906.3 488.8,916.3 459.7,921.9C458.3,922.2 456.8,922.4 455.8,922.6C458.7,918.1 462.2,913.8 464.5,908.8C469.5,897.9 469.3,886.3 467.2,874.9C464.8,861.8 461.4,848.9 458.5,836C458.4,835.3 457.8,834.4 456.7,832.1Z" style="fill:rgb(255,101,36);fill-rule:nonzero;"/>
    </g>
    <g>
        <path d="M591.6,750.5C542.5,749.3 501.5,741.5 462.7,724.1C455,720.7 448,715.6 441.1,710.8C436.1,707.3 433,702 431.5,696C431.3,695 431.3,693.8 430.8,693C422,681.1 425.9,668.3 428.1,655.6C437.7,600.5 447.4,545.3 457,490.2C467.1,432.7 477.3,375.1 487.3,317.6C496.7,263.9 505.9,210.2 515.2,156.5C516.3,150.2 517.6,143.8 519.5,137.7C520.6,134.2 522.8,130.9 524.7,127.7C527.2,123.4 529.9,119.7 526,114.3C522.3,109.2 528.1,101.4 535.1,102.1C561.5,104.8 587.9,107.3 614.1,111.1C638,114.6 661.8,119.2 685.4,124C707.8,128.6 730.2,133.2 751.5,141.6C753.8,142.5 756.8,144.7 757.1,146.6C757.7,150.1 757.4,153.8 753.6,156.7C751.7,158.2 750.5,162.8 751.2,165.2C756.3,181.2 750.8,196.3 748.1,211.6C742.6,243.1 736.6,274.5 730.8,305.9C722.7,349.8 714.5,393.8 706.5,437.7C697.2,488.1 688.1,538.5 678.9,588.9C671.5,629.8 664.1,670.7 656.7,711.6C655.2,719.8 649.9,725.4 644,730.6C643,731.4 641.8,732.2 641.3,733.3C638,740.3 631.9,744.1 624.9,745.4C611.8,748 598.4,749.5 591.6,750.5Z" style="fill:rgb(255,101,36);fill-rule:nonzero;"/>
    </g>
    <path d="M476.7,241.7C479.8,210.2 481.8,179.3 470,175.6C465.5,174.2 462.7,175.4 455.9,182.7C443.5,196.6 435.2,211.4 419.3,233.3C413.8,240.9 411.2,241.5 404,246.2C398.5,249.8 394.8,255.1 390.8,272.1C386.4,290.8 363.1,396 334.2,540.9C331.8,540.8 327.6,539.9 323.2,541.7C308.9,547.5 302.6,552.9 282.1,567.9C268.2,578.1 249.1,588.8 249.1,588.8C249.1,588.8 222.6,607.6 213.4,614.4C209.4,619.2 203.6,628 202.2,634.7C198.2,653.9 196.5,657.8 204.2,658.6C220.8,653.5 269.4,641.7 287.1,635.8C289.3,634.5 296.2,629.7 297.3,628.4C303,621.8 308.8,610.8 308.8,610.8C309.8,610.1 314.8,611.2 317.8,613.5C317.5,615.2 317.8,616.9 317.8,617.8L305.2,637C310.5,645 330.4,653.5 336.6,653.1C336.6,653.1 340.3,643.5 342.4,637.8C347.8,632.8 351.2,620.5 351.9,617.2C352.5,619.5 360.2,627.6 360.2,627.6L342.5,654.3C352.7,667.7 375.3,668 375.3,668L380.4,635.2L389.4,629.3C389.4,629.3 386.9,658.3 386.7,663.5C386.6,665.7 390.7,659.5 391.2,658.4C397,645.9 402,625 402.1,624.6C405.4,610.9 415.5,587.3 421.4,558.7C422.1,555.3 476.2,246.4 476.7,241.7Z" style="fill:rgb(255,101,36);fill-rule:nonzero;"/>
    <g id="Ebene_2">
        <path d="M462.1,285.5L499.5,289.5L496.1,301.5L457,297.5L462.1,285.5Z" style="fill:rgb(255,101,36);fill-rule:nonzero;"/>
        <path d="M415.9,549.5L451.5,553.5L448.3,565.5L411,561.5L415.9,549.5Z" style="fill:rgb(255,101,36);fill-rule:nonzero;"/>
    </g>
</svg>
